<?xml version="1.0" encoding="utf-8"?>
<!-- Generator: Adobe Illustrator 17.0.0, SVG Export Plug-In . SVG Version: 6.00 Build 0)  -->
<!DOCTYPE svg PUBLIC "-//W3C//DTD SVG 1.1//EN" "http://www.w3.org/Graphics/SVG/1.1/DTD/svg11.dtd">
<svg version="1.1" id="Facunda" xmlns="http://www.w3.org/2000/svg" xmlns:xlink="http://www.w3.org/1999/xlink" x="0px" y="0px"
	 width="175px" height="140px" viewBox="0 0 175 140" enable-background="new 0 0 175 140" xml:space="preserve">
<path fill="#333333" d="M26.345,76.508v46.223c0,17.193-12.386,16.639-12.386,16.639H-0.094V0.706c0,0,2.773,0,13.313,0
	c13.681,0,13.126,11.28,13.126,11.28s0,39.935,0,51.769c0,6.101-3.697,6.286-4.252,6.101C26.9,70.038,26.345,76.508,26.345,76.508z
	 M13.219,9.952c-4.807,0-4.807,0-4.807,0v55.837h4.992c0,0,4.252,0.185,4.252-3.143c0-2.958,0-50.106,0-50.106
	S17.656,9.952,13.219,9.952z M13.219,74.292c-4.807,0-4.807,0-4.807,0v55.834h4.992c0,0,4.252,0.372,4.252-3.143
	c0-2.958,0-49.921,0-49.921S17.841,74.292,13.219,74.292z M63.135,130.314c0,0,0,9.613-12.941,9.613
	c-13.498,0-13.313-9.613-13.313-9.613v-10.355V96.475V29.733V9.764c0,0,0-9.613,12.941-9.613c13.313,0,13.313,9.613,13.313,9.613
	v10.538V130.314z M54.628,126.986V110.9V13.095c0,0,0-3.697-4.807-3.697c-4.437,0-4.437,3.697-4.437,3.697v16.639v97.251
	c0,0,0,3.695,4.807,3.695C54.628,130.681,54.628,126.986,54.628,126.986z M100.661,139.373h-8.504V80.576l-4.622-4.807l-4.807,4.807
	v58.794h-8.504V77.063l7.213-7.21l-7.213-7.213V0.521h8.504v58.61l4.807,4.622l4.622-4.622V0.521h8.504v62.122l-7.213,7.213
	l7.213,7.21V139.373z M138.188,139.373h-8.689l-7.952-65.265h-1.294v55.834v9.431h-8.504V64.861V0.706h8.504v64.156
	c0.922,0,1.109,0,1.479,0l7.765-64.156h8.689l-8.504,69.52L138.188,139.373z M174.792,82.609v21.263v16.086v10.353
	c0,0,0,9.613-13.313,9.613c-12.941,0-12.941-9.613-12.941-9.613v-21.633h8.504v18.305c0,0,0,3.695,4.437,3.695
	c4.807,0,4.807-3.695,4.807-3.695V78.914v-0.372c0,0,0-3.697-4.437-3.697h-0.372c-13.126,0-12.941-9.613-12.941-9.613v-6.471V29.179
	V9.764c0,0,0-9.613,12.941-9.613c13.313,0,13.313,9.613,13.313,9.613v22.557h-8.504V13.092c0,0,0-3.697-4.807-3.697
	c-4.437,0-4.437,3.697-4.437,3.697v44.19v4.252c0,0,0,3.697,4.437,3.697h0.555c12.759,0,12.759,9.613,12.759,9.613V82.609z"/>
</svg>
