<?xml version="1.0" encoding="utf-8"?>
<!-- Generator: Adobe Illustrator 17.0.0, SVG Export Plug-In . SVG Version: 6.00 Build 0)  -->
<!DOCTYPE svg PUBLIC "-//W3C//DTD SVG 1.1//EN" "http://www.w3.org/Graphics/SVG/1.1/DTD/svg11.dtd">
<svg version="1.1" id="Square" xmlns="http://www.w3.org/2000/svg" xmlns:xlink="http://www.w3.org/1999/xlink" x="0px" y="0px"
	 width="512px" height="512px" viewBox="0 0 512 512" enable-background="new 0 0 512 512" xml:space="preserve">
<path fill-rule="evenodd" clip-rule="evenodd" d="M85,0h342c46.944,0,85,38.056,85,85v342c0,46.944-38.056,85-85,85H85
	c-46.944,0-85-38.056-85-85V85C0,38.056,38.056,0,85,0z M90,110v292c0,11.046,8.954,20,20,20h292c11.046,0,20-8.954,20-20V110
	c0-11.046-8.954-20-20-20H110C98.954,90,90,98.954,90,110z M186,204v104c0,9.941,8.059,18,18,18h104c9.941,0,18-8.059,18-18V204
	c0-9.941-8.059-18-18-18H204C194.059,186,186,194.059,186,204z"/>
</svg>
