<?xml version="1.0" encoding="utf-8"?>
<!-- Generator: Adobe Illustrator 17.0.0, SVG Export Plug-In . SVG Version: 6.00 Build 0)  -->
<!DOCTYPE svg PUBLIC "-//W3C//DTD SVG 1.1//EN" "http://www.w3.org/Graphics/SVG/1.1/DTD/svg11.dtd">
<svg version="1.1" id="图层_1" xmlns="http://www.w3.org/2000/svg" xmlns:xlink="http://www.w3.org/1999/xlink" x="0px" y="0px"
	 width="512px" height="157px" viewBox="0 0 512 157" enable-background="new 0 0 512 157" xml:space="preserve">
<path fill-rule="evenodd" clip-rule="evenodd" fill="#040000" d="M180.249,154.648l26.02-152.13h41.548l-26.02,152.13H180.249
	L180.249,154.648z M372.249,6.295C364.066,3.358,351.056,0,335.108,0c-41.128,0-69.875,20.564-70.085,50.151
	c-0.21,21.823,20.564,33.993,36.302,41.338c16.157,7.553,21.613,12.17,21.403,18.885c0,10.281-12.8,14.898-24.761,14.898
	c-16.577,0-25.39-2.308-39.03-7.973l-5.456-2.518l-5.665,33.993c9.652,4.406,27.489,7.973,46.164,8.183
	c43.646,0,71.764-20.354,72.184-52.039c0.21-17.207-10.911-30.426-34.833-41.338c-14.479-6.924-23.292-11.541-23.292-18.675
	c0-6.505,7.554-13.219,23.711-13.219c13.639-0.21,23.502,2.727,31.056,5.875l3.777,1.678L372.249,6.295L372.249,6.295z
	 M478.636,2.728L512,154.858h-38.4c0,0-3.777-17.626-5.036-22.872c-6.085,0-48.262,0-53.089,0
	c-1.679,3.987-8.813,22.872-8.813,22.872h-43.436l61.482-139.541c4.407-9.862,11.961-12.59,21.823-12.59H478.636L478.636,2.728z
	 M427.436,100.721h34.413c-1.679-7.554-9.652-43.856-9.652-43.856l-2.728-13.009c-2.098,5.665-5.875,14.898-5.456,14.478
	C444.013,58.334,430.793,92.117,427.436,100.721L427.436,100.721z M145.626,2.728l-40.708,103.658l-4.197-20.983
	C91.625,62.5,71.109,40.753,44.879,27.534l35.488,127.115h43.856l65.259-151.92H145.626L145.626,2.728z M67.357,2.518H0.42L0,5.875
	c51.829,12.59,86.452,43.016,100.721,79.528L86.033,15.527C83.515,5.875,76.38,2.938,67.357,2.518L67.357,2.518z"/>
</svg>
