<?xml version="1.0" encoding="utf-8"?>
<!-- Generator: Adobe Illustrator 17.0.0, SVG Export Plug-In . SVG Version: 6.00 Build 0)  -->
<!DOCTYPE svg PUBLIC "-//W3C//DTD SVG 1.1//EN" "http://www.w3.org/Graphics/SVG/1.1/DTD/svg11.dtd">
<svg version="1.1" id="图层_1" xmlns="http://www.w3.org/2000/svg" xmlns:xlink="http://www.w3.org/1999/xlink" x="0px" y="0px"
	 width="512px" height="157px" viewBox="0 0 512 157" enable-background="new 0 0 512 157" xml:space="preserve">
<polygon fill-rule="evenodd" clip-rule="evenodd" fill="#004F9D" points="180.249,154.648 206.269,2.518 247.816,2.518 
	221.797,154.648 180.249,154.648 "/>
<path fill-rule="evenodd" clip-rule="evenodd" fill="#004F9D" d="M372.249,6.295C364.066,3.358,351.056,0,335.108,0
	c-41.128,0-69.875,20.564-70.085,50.151c-0.21,21.823,20.564,33.993,36.302,41.338c16.157,7.553,21.613,12.17,21.403,18.885
	c0,10.281-12.8,14.898-24.761,14.898c-16.577,0-25.39-2.308-39.03-7.973l-5.456-2.518l-5.665,33.993
	c9.652,4.406,27.489,7.973,46.164,8.183c43.646,0,71.764-20.354,72.184-52.039c0.21-17.207-10.911-30.426-34.833-41.338
	c-14.479-6.924-23.292-11.541-23.292-18.675c0-6.505,7.554-13.219,23.711-13.219c13.639-0.21,23.502,2.727,31.056,5.875l3.777,1.678
	L372.249,6.295L372.249,6.295z"/>
<path fill-rule="evenodd" clip-rule="evenodd" fill="#004F9D" d="M478.636,2.728h-32.105c-9.862,0-17.416,2.728-21.823,12.59
	l-61.482,139.541h43.436c0,0,7.134-18.885,8.813-22.872c4.826,0,47.003,0,53.089,0c1.259,5.245,5.036,22.872,5.036,22.872H512
	L478.636,2.728L478.636,2.728z M427.436,100.721c3.357-8.604,16.577-42.387,16.577-42.387c-0.42,0.42,3.357-8.813,5.456-14.478
	l2.728,13.009c0,0,7.974,36.302,9.652,43.856H427.436L427.436,100.721z"/>
<path fill-rule="evenodd" clip-rule="evenodd" fill="#004F9D" d="M145.626,2.728l-40.708,103.658l-4.197-20.983
	c-7.554-24.341-31.265-50.57-57.495-63.79l37.141,133.035h43.856l65.259-151.92H145.626L145.626,2.728z"/>
<path fill-rule="evenodd" clip-rule="evenodd" fill="#F6AB00" d="M67.357,2.518H0.42L0,5.875
	c51.829,12.59,86.452,43.016,100.721,79.528L86.033,15.527C83.515,5.875,76.38,2.938,67.357,2.518L67.357,2.518z"/>
</svg>
